<svg width="164" height="107" viewBox="0 0 164 107" fill="none" xmlns="http://www.w3.org/2000/svg">
<path opacity="0.4" d="M156.251 49.2753C156.669 49.6794 157.331 49.6794 157.749 49.2753C158.046 48.9884 158.48 48.8961 158.868 49.0375C159.414 49.2367 160.02 48.9671 160.237 48.428C160.391 48.0453 160.75 47.7843 161.162 47.7558C161.742 47.7157 162.186 47.223 162.165 46.6422C162.15 46.2298 162.372 45.8452 162.737 45.6518C163.25 45.3793 163.455 44.7488 163.2 44.2266C163.019 43.8558 163.065 43.4142 163.319 43.0892C163.677 42.6315 163.608 41.9722 163.163 41.5989C162.846 41.3339 162.709 40.9115 162.809 40.5112C162.95 39.9474 162.619 39.3732 162.06 39.2135C161.663 39.1 161.366 38.77 161.295 38.3636C161.194 37.7911 160.658 37.4014 160.082 37.4828C159.674 37.5405 159.268 37.3599 159.038 37.0176C158.713 36.5355 158.064 36.3977 157.572 36.7061C157.222 36.925 156.778 36.925 156.428 36.7061C155.936 36.3977 155.287 36.5355 154.962 37.0176C154.732 37.3599 154.326 37.5405 153.918 37.4828C153.342 37.4014 152.806 37.7911 152.705 38.3636C152.634 38.77 152.337 39.1 151.94 39.2135C151.381 39.3732 151.05 39.9474 151.191 40.5112C151.291 40.9115 151.154 41.3339 150.837 41.5989C150.392 41.9722 150.323 42.6315 150.681 43.0892C150.935 43.4142 150.981 43.8558 150.8 44.2266C150.545 44.7488 150.75 45.3793 151.263 45.6518C151.628 45.8452 151.85 46.2298 151.835 46.6422C151.814 47.223 152.258 47.7157 152.838 47.7558C153.25 47.7843 153.609 48.0453 153.763 48.428C153.98 48.9671 154.586 49.2367 155.132 49.0375C155.52 48.8961 155.954 48.9884 156.251 49.2753Z" fill="black"/>
<path opacity="0.4" d="M6.25074 24.2753C6.66852 24.6794 7.33148 24.6794 7.74926 24.2753C8.04587 23.9884 8.48026 23.8961 8.86791 24.0375C9.41393 24.2367 10.0196 23.9671 10.2369 23.428C10.3912 23.0453 10.7504 22.7843 11.1621 22.7558C11.742 22.7157 12.1856 22.223 12.1648 21.6422C12.1501 21.2298 12.3721 20.8452 12.7366 20.6518C13.25 20.3793 13.4549 19.7488 13.1997 19.2266C13.0185 18.8558 13.0649 18.4142 13.3192 18.0892C13.6774 17.6315 13.6081 16.9722 13.1626 16.5989C12.8463 16.3339 12.709 15.9115 12.8092 15.5112C12.9503 14.9474 12.6188 14.3732 12.0599 14.2135C11.6632 14.1 11.366 13.77 11.2947 13.3636C11.1942 12.7911 10.6579 12.4014 10.0824 12.4828C9.67377 12.5405 9.26807 12.3599 9.03759 12.0176C8.71296 11.5355 8.06449 11.3977 7.57183 11.7061C7.22205 11.925 6.77795 11.925 6.42817 11.7061C5.93551 11.3977 5.28704 11.5355 4.96241 12.0176C4.73193 12.3599 4.32623 12.5405 3.91763 12.4828C3.34212 12.4014 2.80578 12.7911 2.70531 13.3636C2.63398 13.77 2.33682 14.1 1.94006 14.2135C1.38122 14.3732 1.04974 14.9474 1.1908 15.5112C1.29095 15.9115 1.15372 16.3339 0.837395 16.5989C0.391852 16.9722 0.322554 17.6315 0.680758 18.0892C0.935073 18.4142 0.981493 18.8558 0.800302 19.2266C0.545093 19.7488 0.749957 20.3793 1.26337 20.6518C1.62788 20.8452 1.84992 21.2298 1.83519 21.6422C1.81445 22.223 2.25805 22.7157 2.83789 22.7558C3.24957 22.7843 3.60885 23.0453 3.76313 23.428C3.98043 23.9671 4.58607 24.2367 5.13208 24.0375C5.51974 23.8961 5.95413 23.9884 6.25074 24.2753Z" fill="black"/>
<path d="M82.6298 20.7106C85.3454 18.084 89.6546 18.084 92.3702 20.7106C94.2981 22.5753 97.1217 23.1755 99.6414 22.2561C103.191 20.9611 107.127 22.7139 108.54 26.2179C109.542 28.7056 111.878 30.4023 114.554 30.5873C118.323 30.8478 121.206 34.0502 121.071 37.8258C120.976 40.5063 122.419 43.0062 124.788 44.2636C128.125 46.0346 129.457 50.1329 127.798 53.5272C126.62 55.937 126.922 58.8078 128.575 60.9202C130.903 63.8954 130.453 68.181 127.557 70.6071C125.501 72.3296 124.609 75.075 125.26 77.677C126.177 81.3421 124.022 85.0739 120.39 86.1124C117.811 86.8497 115.879 88.9949 115.415 91.6367C114.762 95.3579 111.276 97.8907 107.535 97.362C104.88 96.9866 102.242 98.1607 100.744 100.386C98.6342 103.519 94.4192 104.415 91.2169 102.411C88.9433 100.987 86.0567 100.987 83.7831 102.411C80.5808 104.415 76.3658 103.519 74.2557 100.386C72.7575 98.1607 70.1205 96.9866 67.4646 97.362C63.7238 97.8907 60.2376 95.3579 59.5845 91.6367C59.1208 88.9949 57.1893 86.8497 54.6104 86.1124C50.9779 85.0739 48.8233 81.3421 49.7402 77.677C50.3912 75.075 49.4992 72.3296 47.4431 70.6071C44.547 68.181 44.0966 63.8954 46.4249 60.9202C48.078 58.8078 48.3797 55.937 47.202 53.5272C45.5431 50.1329 46.8747 46.0346 50.2119 44.2636C52.5812 43.0062 54.0245 40.5063 53.9288 37.8258C53.7939 34.0502 56.6773 30.8478 60.4463 30.5873C63.1222 30.4023 65.4575 28.7056 66.4603 26.2179C67.8728 22.7138 71.8094 20.9611 75.3586 22.2561C77.8783 23.1755 80.7019 22.5753 82.6298 20.7106Z" fill="black"/>
<path d="M68.1613 60.9481L79.8067 74.7937C80.1622 75.2164 80.793 75.2709 81.2157 74.9154L110.213 50.5257" stroke="#F0F2F5" stroke-width="4"/>
<path opacity="0.4" d="M103.125 6.63765C103.334 6.83969 103.666 6.83969 103.875 6.63765C104.023 6.4942 104.24 6.44804 104.434 6.51876C104.707 6.61837 105.01 6.48355 105.118 6.21401C105.196 6.02265 105.375 5.89213 105.581 5.8779C105.871 5.85786 106.093 5.61152 106.082 5.32109C106.075 5.1149 106.186 4.9226 106.368 4.82588C106.625 4.68965 106.727 4.3744 106.6 4.11329C106.509 3.92792 106.532 3.70709 106.66 3.5446C106.839 3.31574 106.804 2.98608 106.581 2.79945C106.423 2.66695 106.355 2.45577 106.405 2.25561C106.475 1.97369 106.309 1.68662 106.03 1.60674C105.832 1.55002 105.683 1.38501 105.647 1.18179C105.597 0.89555 105.329 0.700713 105.041 0.741387C104.837 0.770265 104.634 0.67995 104.519 0.508805C104.356 0.267746 104.032 0.198828 103.786 0.353026C103.611 0.462502 103.389 0.462502 103.214 0.353026C102.968 0.198828 102.644 0.267746 102.481 0.508805C102.366 0.67995 102.163 0.770265 101.959 0.741387C101.671 0.700713 101.403 0.89555 101.353 1.18179C101.317 1.38501 101.168 1.55002 100.97 1.60674C100.691 1.68662 100.525 1.97369 100.595 2.25561C100.645 2.45577 100.577 2.66695 100.419 2.79945C100.196 2.98608 100.161 3.31574 100.34 3.5446C100.468 3.70709 100.491 3.92792 100.4 4.11329C100.273 4.3744 100.375 4.68965 100.632 4.82588C100.814 4.9226 100.925 5.1149 100.918 5.32109C100.907 5.61152 101.129 5.85786 101.419 5.8779C101.625 5.89213 101.804 6.02265 101.882 6.21401C101.99 6.48355 102.293 6.61837 102.566 6.51876C102.76 6.44804 102.977 6.4942 103.125 6.63765Z" fill="black"/>
<path opacity="0.4" d="M21.9113 101.431C22.2396 101.748 22.7604 101.748 23.0887 101.431C23.3218 101.205 23.6631 101.133 23.9676 101.244C24.3967 101.4 24.8725 101.188 25.0433 100.765C25.1645 100.464 25.4468 100.259 25.7702 100.237C26.2258 100.205 26.5744 99.8181 26.5581 99.3617C26.5465 99.0377 26.721 98.7355 27.0074 98.5835C27.4107 98.3694 27.5717 97.8741 27.3712 97.4637C27.2288 97.1724 27.2653 96.8254 27.4651 96.5701C27.7466 96.2104 27.6921 95.6924 27.342 95.3991C27.0935 95.1909 26.9857 94.8591 27.0644 94.5445C27.1752 94.1015 26.9148 93.6504 26.4757 93.5249C26.1639 93.4358 25.9304 93.1764 25.8744 92.8571C25.7955 92.4073 25.374 92.1011 24.9219 92.165C24.6008 92.2104 24.2821 92.0685 24.101 91.7996C23.8459 91.4207 23.3364 91.3124 22.9493 91.5548C22.6745 91.7268 22.3255 91.7268 22.0507 91.5548C21.6636 91.3124 21.1541 91.4207 20.899 91.7996C20.7179 92.0685 20.3992 92.2104 20.0781 92.165C19.626 92.1011 19.2045 92.4073 19.1256 92.8571C19.0696 93.1764 18.8361 93.4358 18.5243 93.5249C18.0852 93.6504 17.8248 94.1015 17.9356 94.5445C18.0143 94.8591 17.9065 95.1909 17.658 95.3991C17.3079 95.6924 17.2534 96.2104 17.5349 96.5701C17.7347 96.8254 17.7712 97.1724 17.6288 97.4637C17.4283 97.8741 17.5893 98.3694 17.9926 98.5835C18.279 98.7355 18.4535 99.0377 18.4419 99.3617C18.4256 99.8181 18.7742 100.205 19.2298 100.237C19.5532 100.259 19.8355 100.464 19.9567 100.765C20.1275 101.188 20.6033 101.4 21.0324 101.244C21.3369 101.133 21.6782 101.205 21.9113 101.431Z" fill="black"/>
<path opacity="0.4" d="M17.1254 56.6376C17.3343 56.8397 17.6657 56.8397 17.8746 56.6376C18.0229 56.4942 18.2401 56.448 18.434 56.5188C18.707 56.6184 19.0098 56.4836 19.1184 56.214C19.1956 56.0226 19.3752 55.8921 19.5811 55.8779C19.871 55.8579 20.0928 55.6115 20.0824 55.3211C20.075 55.1149 20.1861 54.9226 20.3683 54.8259C20.625 54.6896 20.7275 54.3744 20.5998 54.1133C20.5093 53.9279 20.5325 53.7071 20.6596 53.5446C20.8387 53.3157 20.8041 52.9861 20.5813 52.7995C20.4231 52.667 20.3545 52.4558 20.4046 52.2556C20.4751 51.9737 20.3094 51.6866 20.03 51.6067C19.8316 51.55 19.683 51.385 19.6473 51.1818C19.5971 50.8955 19.3289 50.7007 19.0412 50.7414C18.8369 50.7703 18.634 50.6799 18.5188 50.5088C18.3565 50.2677 18.0322 50.1988 17.7859 50.353C17.611 50.4625 17.389 50.4625 17.2141 50.353C16.9678 50.1988 16.6435 50.2677 16.4812 50.5088C16.366 50.68 16.1631 50.7703 15.9588 50.7414C15.6711 50.7007 15.4029 50.8955 15.3527 51.1818C15.317 51.385 15.1684 51.55 14.97 51.6067C14.6906 51.6866 14.5249 51.9737 14.5954 52.2556C14.6455 52.4558 14.5769 52.667 14.4187 52.7995C14.1959 52.9861 14.1613 53.3157 14.3404 53.5446C14.4675 53.7071 14.4907 53.9279 14.4002 54.1133C14.2725 54.3744 14.375 54.6896 14.6317 54.8259C14.8139 54.9226 14.925 55.1149 14.9176 55.3211C14.9072 55.6115 15.129 55.8579 15.4189 55.8779C15.6248 55.8921 15.8044 56.0226 15.8816 56.214C15.9902 56.4836 16.293 56.6184 16.566 56.5188C16.7599 56.448 16.9771 56.4942 17.1254 56.6376Z" fill="black"/>
<path opacity="0.4" d="M142.125 96.6376C142.334 96.8397 142.666 96.8397 142.875 96.6376C143.023 96.4942 143.24 96.448 143.434 96.5188C143.707 96.6184 144.01 96.4836 144.118 96.214C144.196 96.0226 144.375 95.8921 144.581 95.8779C144.871 95.8579 145.093 95.6115 145.082 95.3211C145.075 95.1149 145.186 94.9226 145.368 94.8259C145.625 94.6896 145.727 94.3744 145.6 94.1133C145.509 93.9279 145.532 93.7071 145.66 93.5446C145.839 93.3157 145.804 92.9861 145.581 92.7995C145.423 92.667 145.355 92.4558 145.405 92.2556C145.475 91.9737 145.309 91.6866 145.03 91.6067C144.832 91.55 144.683 91.385 144.647 91.1818C144.597 90.8955 144.329 90.7007 144.041 90.7414C143.837 90.7703 143.634 90.6799 143.519 90.5088C143.356 90.2677 143.032 90.1988 142.786 90.353C142.611 90.4625 142.389 90.4625 142.214 90.353C141.968 90.1988 141.644 90.2677 141.481 90.5088C141.366 90.68 141.163 90.7703 140.959 90.7414C140.671 90.7007 140.403 90.8955 140.353 91.1818C140.317 91.385 140.168 91.55 139.97 91.6067C139.691 91.6866 139.525 91.9737 139.595 92.2556C139.645 92.4558 139.577 92.667 139.419 92.7995C139.196 92.9861 139.161 93.3157 139.34 93.5446C139.468 93.7071 139.491 93.9279 139.4 94.1133C139.273 94.3744 139.375 94.6896 139.632 94.8259C139.814 94.9226 139.925 95.1149 139.918 95.3211C139.907 95.6115 140.129 95.8579 140.419 95.8779C140.625 95.8921 140.804 96.0226 140.882 96.214C140.99 96.4836 141.293 96.6184 141.566 96.5188C141.76 96.448 141.977 96.4942 142.125 96.6376Z" fill="black"/>
</svg>
